<?xml version="1.0" standalone="no"?>
<!DOCTYPE svg PUBLIC "-//W3C//DTD SVG 20010904//EN"
 "http://www.w3.org/TR/2001/REC-SVG-20010904/DTD/svg10.dtd">
<svg version="1.0" xmlns="http://www.w3.org/2000/svg"
 width="260.000000pt" height="260.000000pt" viewBox="0 0 260.000000 260.000000"
 preserveAspectRatio="xMidYMid meet">
<metadata>
Created by potrace 1.11, written by Peter Selinger 2001-2013
</metadata>
<g transform="translate(0.000000,260.000000) scale(0.100000,-0.100000)"
fill="#000000" stroke="none">
<path d="M513 1602 c-20 -3 -23 -9 -23 -47 0 -41 18 -64 40 -50 5 3 11 1 15
-5 4 -6 10 -8 15 -5 8 5 48 -32 94 -86 10 -12 21 -17 25 -13 3 5 17 10 31 10
14 1 33 2 43 3 36 2 13 73 -40 123 -27 25 -122 65 -153 63 -8 0 -17 2 -20 5
-3 3 -15 4 -27 2z"/>
<path d="M838 1599 c-3 -7 -5 -80 -4 -162 l1 -148 41 -32 c40 -32 42 -32 150
-32 l109 0 2 25 c0 14 2 30 3 35 9 35 3 82 -10 97 -12 13 -16 42 -18 109 -1
74 -5 94 -19 104 -10 7 -20 10 -23 6 -8 -11 -140 -7 -140 4 0 6 -4 4 -9 -4 -6
-9 -11 -10 -15 -2 -4 7 -15 7 -31 1 -16 -6 -25 -5 -27 2 -3 8 -6 7 -10 -3z"/>
<path d="M1550 1602 c0 -5 -15 -9 -32 -8 -33 1 -33 0 -36 -49 -1 -27 -3 -68
-3 -90 0 -47 -23 -77 -59 -74 -14 0 -27 0 -30 -1 -20 -7 -40 -7 -40 1 0 5 -10
5 -23 0 -14 -5 -30 -5 -40 0 -11 7 -17 6 -17 0 0 -5 -9 -9 -20 -8 -11 1 -20 5
-20 11 0 5 -8 2 -18 -7 -16 -15 -18 -34 -16 -194 1 -98 2 -182 3 -188 1 -6 51
-10 129 -10 l127 0 0 88 c0 48 4 87 9 87 5 0 3 6 -3 13 -8 10 -7 18 2 31 10
14 29 18 80 19 37 1 68 -1 70 -6 3 -9 107 44 107 55 0 4 7 8 15 8 11 0 15 13
16 53 0 28 1 96 2 150 1 55 -2 102 -7 105 -6 3 -46 6 -90 7 -45 0 -87 4 -93 8
-7 5 -13 4 -13 -1z"/>
<path d="M1880 1600 c-7 -4 -21 -5 -31 -3 -19 5 -20 -2 -19 -206 1 -120 6
-226 12 -244 27 -82 113 -143 216 -154 l48 -5 2 35 c2 33 1 35 -49 51 -29 10
-57 23 -63 29 -41 44 -41 46 -46 270 l-5 221 -26 7 c-15 3 -32 3 -39 -1z"/>
<path d="M355 1592 c-4 -4 -11 -8 -16 -8 -5 -1 -11 -3 -14 -4 -3 -1 -8 -3 -12
-4 -28 -6 -76 -42 -100 -73 -38 -49 -40 -129 -4 -167 28 -30 91 -61 146 -71
22 -4 42 -8 45 -8 2 -1 5 22 6 51 1 28 -1 52 -5 53 -53 6 -91 33 -91 63 0 25
55 80 70 71 5 -3 12 0 17 7 10 16 14 88 5 89 -4 0 -15 2 -24 4 -9 2 -20 0 -23
-3z"/>
<path d="M2299 1572 c0 -15 -1 -103 -1 -195 0 -93 -4 -184 -8 -204 -11 -48
-53 -89 -106 -102 -41 -11 -44 -14 -44 -44 0 -19 2 -36 5 -39 3 -3 27 -1 53 4
26 6 53 10 60 11 6 0 12 4 12 9 0 4 6 8 13 8 8 0 32 13 54 29 69 50 78 89 78
336 l0 210 -57 1 c-56 2 -58 1 -59 -24z"/>
<path d="M490 1290 c0 -32 5 -52 13 -54 104 -29 126 -38 133 -59 5 -12 7 -29
5 -37 -3 -16 -51 -68 -51 -55 0 4 -6 2 -14 -4 -7 -6 -30 -12 -50 -13 -36 -1
-36 -2 -36 -44 l0 -42 38 4 c40 5 77 12 77 14 0 1 10 3 23 6 12 2 40 15 61 28
122 77 112 218 -19 263 -34 12 -158 43 -172 43 -5 0 -8 -23 -8 -50z"/>
<path d="M182 1172 c-20 -3 -23 -8 -17 -30 18 -72 98 -133 192 -147 12 -2 27
-6 32 -10 12 -7 12 -6 16 47 2 33 0 38 -28 48 -40 14 -87 58 -87 82 0 16 -7
18 -42 16 -24 -1 -54 -4 -66 -6z"/>
</g>
</svg>
